<svg width="24" height="25" viewBox="0 0 24 25" fill="none" xmlns="http://www.w3.org/2000/svg">
<g id="Icons">
<path id="Vector" d="M17 2.26367H7C4.23858 2.26367 2 4.50225 2 7.26367V17.2637C2 20.0251 4.23858 22.2637 7 22.2637H17C19.7614 22.2637 22 20.0251 22 17.2637V7.26367C22 4.50225 19.7614 2.26367 17 2.26367Z" stroke="#4176CF" stroke-width="2" stroke-linecap="round" stroke-linejoin="round"/>
<path id="Vector_2" d="M16 11.634C16.1234 12.4662 15.9813 13.3162 15.5938 14.063C15.2063 14.8098 14.5931 15.4154 13.8416 15.7936C13.0901 16.1719 12.2384 16.3036 11.4078 16.1699C10.5771 16.0362 9.80976 15.6441 9.21484 15.0491C8.61991 14.4542 8.22773 13.6868 8.09406 12.8562C7.9604 12.0255 8.09206 11.1739 8.47032 10.4223C8.84858 9.67083 9.45418 9.05771 10.201 8.67021C10.9478 8.28272 11.7978 8.14056 12.63 8.26397C13.4789 8.38986 14.2648 8.78544 14.8717 9.39228C15.4785 9.99912 15.8741 10.7851 16 11.634Z" stroke="#4176CF" stroke-width="2" stroke-linecap="round" stroke-linejoin="round"/>
<path id="Vector_3" d="M17.5 6.76367H17.51" stroke="#4176CF" stroke-width="2" stroke-linecap="round" stroke-linejoin="round"/>
</g>
</svg>
