<svg width="24" height="25" viewBox="0 0 24 25" fill="none" xmlns="http://www.w3.org/2000/svg">
<g id="Icons">
<path id="Vector" d="M22.54 6.68367C22.4212 6.20908 22.1793 5.77424 21.8387 5.42308C21.498 5.07191 21.0708 4.81686 20.6 4.68367C18.88 4.26367 12 4.26367 12 4.26367C12 4.26367 5.12001 4.26367 3.40001 4.72367C2.92925 4.85686 2.50198 5.11191 2.16135 5.46308C1.82072 5.81424 1.5788 6.24908 1.46001 6.72367C1.14522 8.46923 0.991243 10.24 1.00001 12.0137C0.988786 13.8007 1.14277 15.585 1.46001 17.3437C1.59097 17.8035 1.83831 18.2218 2.17815 18.5582C2.51799 18.8945 2.93883 19.1375 3.40001 19.2637C5.12001 19.7237 12 19.7237 12 19.7237C12 19.7237 18.88 19.7237 20.6 19.2637C21.0708 19.1305 21.498 18.8754 21.8387 18.5243C22.1793 18.1731 22.4212 17.7383 22.54 17.2637C22.8524 15.5313 23.0063 13.774 23 12.0137C23.0112 10.2266 22.8572 8.44237 22.54 6.68367V6.68367Z" stroke="#4176CF" stroke-width="2" stroke-linecap="round" stroke-linejoin="round"/>
<path id="Vector_2" d="M9.75 15.2841L15.5 12.0141L9.75 8.74414V15.2841Z" stroke="#4176CF" stroke-width="2" stroke-linecap="round" stroke-linejoin="round"/>
</g>
</svg>
